<svg width="32" height="32" viewBox="0 0 32 32" fill="none" xmlns="http://www.w3.org/2000/svg">
<path d="M5.11052 5.33335H11.0972L13.0265 10.1574L9.92652 12.224C9.74397 12.3458 9.5943 12.5108 9.49079 12.7043C9.38729 12.8978 9.33315 13.1139 9.33319 13.3334C9.33719 13.4587 9.33319 13.3347 9.33319 13.3347V13.3627C9.33398 13.4223 9.33664 13.4819 9.34119 13.5414C9.34919 13.6507 9.36252 13.7987 9.38785 13.9814C9.43985 14.3414 9.53985 14.8374 9.73452 15.4214C10.1265 16.5947 10.8945 18.1134 12.3905 19.6094C13.8865 21.1054 15.4052 21.8734 16.5772 22.2654C17.1625 22.46 17.6572 22.5587 18.0199 22.612C18.2246 22.6406 18.4306 22.6584 18.6372 22.6654L18.6545 22.6667H18.6652C18.6652 22.6667 18.8145 22.6587 18.6665 22.6667C18.9141 22.6666 19.1567 22.5975 19.3672 22.4673C19.5777 22.3371 19.7479 22.1508 19.8585 21.9294L20.7519 20.1427L26.6665 21.1294V26.8894C23.8519 27.296 16.2492 27.6974 10.2759 21.724C4.30252 15.7507 4.70252 8.14669 5.11052 5.33335ZM12.0972 13.9814L14.5065 12.376C15.0155 12.0365 15.3923 11.5323 15.5736 10.948C15.755 10.3636 15.7299 9.73471 15.5025 9.16669L13.5732 4.34269C13.3752 3.84789 13.0335 3.42377 12.5922 3.12504C12.1508 2.8263 11.6301 2.66665 11.0972 2.66669H5.04119C3.82919 2.66669 2.68919 3.50802 2.49052 4.82269C2.03719 7.81202 1.42252 16.6414 8.39052 23.6094C15.3585 30.5774 24.1879 29.9614 27.1772 29.5094C28.4919 29.3094 29.3332 28.1707 29.3332 26.9587V21.1294C29.3333 20.4981 29.1094 19.8873 28.7014 19.4056C28.2935 18.9239 27.7278 18.6025 27.1052 18.4987L21.1905 17.5134C20.628 17.4195 20.0502 17.5084 19.5419 17.7671C19.0336 18.0258 18.6217 18.4406 18.3665 18.9507L17.9052 19.8747C17.742 19.8345 17.5806 19.7878 17.4212 19.7347C16.5945 19.46 15.4465 18.8947 14.2759 17.724C13.1052 16.5534 12.5399 15.4054 12.2652 14.5774C12.1996 14.3816 12.144 14.1827 12.0985 13.9814H12.0972Z" fill="white"/>
</svg>
