<svg width="640" height="512" viewBox="0 0 640 512" fill="none" xmlns="http://www.w3.org/2000/svg">
<path d="M192 96C204.73 96 216.939 90.9429 225.941 81.9411C234.943 72.9394 240 60.7304 240 48C240 35.2696 234.943 23.0606 225.941 14.0589C216.939 5.05713 204.73 0 192 0C179.27 0 167.061 5.05713 158.059 14.0589C149.057 23.0606 144 35.2696 144 48C144 60.7304 149.057 72.9394 158.059 81.9411C167.061 90.9429 179.27 96 192 96ZM184 480V352H200V480C200 497.7 214.3 512 232 512C249.7 512 264 497.7 264 480V192H320H384H400C417.7 192 432 177.7 432 160C432 142.3 417.7 128 400 128H384V64H576V256H384V224H320V272C320 298.5 341.5 320 368 320H592C618.5 320 640 298.5 640 272V48C640 21.5 618.5 0 592 0H368C341.5 0 320 21.5 320 48V128H243.1H177.1C143.4 128 112.2 145.7 94.8 174.6L36.5 271.6C27.4 286.7 32.3 306.4 47.4 315.5C62.5 324.6 82.2 319.7 91.3 304.6L120 256.9V480C120 497.7 134.3 512 152 512C169.7 512 184 497.7 184 480Z" fill="#0D7284"/>
</svg>
