<?xml version="1.0" encoding="UTF-8"?>
<!DOCTYPE svg PUBLIC "-//W3C//DTD SVG 1.1//EN" "http://www.w3.org/Graphics/SVG/1.1/DTD/svg11.dtd">
<!-- Creator: CorelDRAW -->
<svg xmlns="http://www.w3.org/2000/svg" xml:space="preserve" width="161px" height="55px" style="shape-rendering:geometricPrecision; text-rendering:geometricPrecision; image-rendering:optimizeQuality; fill-rule:evenodd; clip-rule:evenodd"
viewBox="0 0 5.98214 2.03801"
 xmlns:xlink="http://www.w3.org/1999/xlink">
 <defs>
  <style type="text/css">
   <![CDATA[
    .fil2 {fill:white}
    .fil0 {fill:#0D7284}
    .fil1 {fill:#7A1B58}
    .fil3 {fill:#0D7284;fill-rule:nonzero}
    .fil5 {fill:#171312;fill-rule:nonzero}
    .fil4 {fill:#7A1B58;fill-rule:nonzero}
   ]]>
  </style>
 </defs>
 <g id="Layer_x0020_1">
  <metadata id="CorelCorpID_0Corel-Layer"/>
  <g id="_126629656">
   <path id="_126630736" class="fil0" d="M4.4492 2.03801c1.66069,-0.92729 0.268981,-1.78526 -1.36118,-2.02279 1.76208,-0.135832 4.72733,1.12765 1.36118,2.02279z"/>
   <polygon id="_126630688" class="fil1" points="4.4989,0.671506 4.70925,0.671506 4.70925,0.881807 4.4989,0.881807 "/>
   <polygon id="_126630640" class="fil1" points="4.4989,1.07856 4.70925,1.07856 4.70925,1.28886 4.4989,1.28886 "/>
   <polygon id="_126630592" class="fil1" points="4.4989,1.48557 4.70925,1.48557 4.70925,1.69587 4.4989,1.69587 "/>
   <polygon id="_126630544" class="fil0" points="4.91955,0.875033 4.70925,0.875033 4.70925,1.08534 4.91955,1.08534 "/>
   <polygon id="_126630496" class="fil0" points="4.91955,1.28205 4.70925,1.28205 4.70925,1.49235 4.91955,1.49235 "/>
   <polygon id="_126630448" class="fil2" points="5.04263,0.671506 5.25297,0.671506 5.25297,0.881807 5.04263,0.881807 "/>
   <polygon id="_126630400" class="fil2" points="5.04263,1.07856 5.25297,1.07856 5.25297,1.28886 5.04263,1.28886 "/>
   <polygon id="_126630352" class="fil2" points="5.04263,1.48557 5.25297,1.48557 5.25297,1.69587 5.04263,1.69587 "/>
   <polygon id="_126630304" class="fil2" points="5.46327,0.875033 5.25297,0.875033 5.25297,1.08534 5.46327,1.08534 "/>
   <polygon id="_126630256" class="fil2" points="5.46327,1.28205 5.25297,1.28205 5.25297,1.49235 5.46327,1.49235 "/>
   <path id="_126630208" class="fil1" d="M4.49486 0c0.0755697,0 0.136888,0.0612739 0.136888,0.136888 0,0.0755697 -0.0613179,0.136888 -0.136888,0.136888 -0.0756137,0 -0.136888,-0.0613179 -0.136888,-0.136888 0,-0.0756137 0.0612739,-0.136888 0.136888,-0.136888z"/>
   <path id="_126630064" class="fil2" d="M4.36004 0.113091c0.0899974,0.0186945 0.178939,0.0395883 0.266121,0.0624615 -0.0167151,0.0567872 -0.0691476,0.098223 -0.131345,0.098223 -0.0755697,0 -0.136844,-0.0613179 -0.136844,-0.136888 0,-0.0081376 0.000703792,-0.0160553 0.00206739,-0.023797z"/>
   <path id="_126630016" class="fil3" d="M0.692267 0.742325l-0.586831 0c-0.00725786,0 -0.0109088,0.0023753 -0.0109088,0.00712589 0,0.00285916 0.00708191,0.0118765 0.0212457,0.027096 0.0141198,0.0152195 0.0212017,0.0285036 0.0212017,0.0398962 0,0.00285916 -0.000395883,0.00523445 -0.00118765,0.00716988l-0.135832 0.598927c0,0.000923727 0,0.0023753 0,0.00426674 0,0.00853348 0.00527844,0.0128442 0.0157913,0.0128442l0.231768 0c0.0120964,0 0.0197942,-0.00571831 0.0230492,-0.0171109l0.033914 -0.15545c0.00325504,-0.0113926 0.0109088,-0.0171109 0.0230492,-0.0171109l0.250946 0c0.037213,0 0.0715669,-0.0123603 0.103501,-0.037081 0.0318906,-0.0247207 0.0519047,-0.0546758 0.0599983,-0.0898215l0.0569632 -0.253849c0.00162752,-0.00857747 0.00246327,-0.0171109 0.00246327,-0.0256884 0,-0.0294713 -0.0103369,-0.0537081 -0.0309229,-0.0727105 -0.0206299,-0.0190024 -0.0466702,-0.0285036 -0.0782089,-0.0285036zm-0.253409 0.443477l-0.0963755 0c-0.0105129,0 -0.0157473,-0.00426674 -0.0157473,-0.0125803 0.000571831,-0.00193543 0.0010117,-0.00334301 0.0010117,-0.00453066l0.0775931 -0.345078c0.00241929,-0.0114366 0.010073,-0.0171109 0.0230052,-0.0171109l0.0965955 0c0.0105129,0 0.0157473,0.00426674 0.0157473,0.0128002 0,0.00193543 -0.000395883,0.00334301 -0.00118765,0.00431073l-0.0775931 0.345078c-0.00241929,0.0113926 -0.010117,0.0171109 -0.0230492,0.0171109zm0.443741 0.255257l0.520146 0c0.0120964,0 0.0399842,-0.0171109 0.0836633,-0.0513328 0.00483857,-0.00285916 0.00725786,-0.00571831 0.00725786,-0.00853348 0,-0.00382687 -0.00848949,-0.00716988 -0.0254685,-0.00998505 -0.016979,-0.00285916 -0.0254685,-0.00954518 -0.0254685,-0.0199701 0,-0.00193543 0,-0.00334301 0,-0.00431073l0.064265 -0.286619c0.00241929,-0.00853348 0.00365092,-0.0171109 0.00365092,-0.0256444 0,-0.0294713 -0.010293,-0.0537081 -0.0309229,-0.0727545 -0.0206299,-0.0190024 -0.0466702,-0.0285036 -0.0782089,-0.0285036l-0.520102 0c-0.00730184,0 -0.0109088,0.0023753 -0.0109088,0.00712589 0,0.00189144 0.000791766,0.00378288 0.00241929,0.00571831l0.0314947 0.0384886c0.00730184,0.00853348 0.0173749,0.0128442 0.030307,0.0128442l0.298276 0c0.0105129,0 0.0157473,0.00426674 0.0157473,0.0128002 0,0.0332982 -0.010073,0.0499252 -0.030307,0.0499252l-0.249758 0c-0.0379608,0 -0.0727545,0.0126243 -0.104249,0.0377848 -0.0315387,0.0252046 -0.0513328,0.0548958 -0.0594264,0.0891177l-0.0278878 0.126946c-0.00241929,0.00853348 -0.00360693,0.0175948 -0.00360693,0.027096 0,0.0294713 0.010293,0.0534442 0.0308789,0.0720067 0.0206299,0.0185185 0.0467142,0.0277998 0.0782089,0.0277998zm0.225521 -0.317982l0.0973872 0c0.00972113,0 0.0145597,0.0047506 0.0145597,0.0144717 0,0.00189144 -0.0165831,0.0760535 -0.0497053,0.222486 -0.00241929,0.0111727 -0.010117,0.016847 -0.0230492,0.016847l-0.0961996 0c-0.0104689,0 -0.0157473,-0.00426674 -0.0157473,-0.0128442 0,-0.00189144 0.0165831,-0.0760535 0.0497053,-0.222442 0.00241929,-0.0123603 0.010117,-0.0185185 0.0230492,-0.0185185zm1.17727 0.0384886c0,-0.00189144 0.000395883,-0.00334301 0.00118765,-0.00426674l0.0206299 -0.0969913c0.00241929,-0.00853348 0.00360693,-0.0171109 0.00360693,-0.0256444 0,-0.0294713 -0.010293,-0.0537081 -0.0309229,-0.0727545 -0.0205859,-0.0190024 -0.0466702,-0.0285036 -0.0781649,-0.0285036l-0.586831 0c-0.00809361,0 -0.0120964,0.0023753 -0.0120964,0.00712589 0,0.00285916 0.00703792,0.0118765 0.0212017,0.027096 0.0141638,0.0152195 0.0212017,0.0285036 0.0212017,0.0399402 0,0.00281517 -0.000395883,0.00523445 -0.00118765,0.00712589l-0.0921528 0.407848c0,0.00189144 0,0.00329903 0,0.00426674 0,0.00950119 0.00523445,0.0142518 0.0157473,0.0142518l0.231592 0c0.0120964,0 0.0197942,-0.00615818 0.0230052,-0.0185185l0.0921528 -0.407848c0.00241929,-0.0114366 0.010117,-0.0171109 0.0230492,-0.0171109l0.0957597 0c0.0105129,0 0.0157913,0.00426674 0.0157913,0.0128002 0,0.0161872 -0.00831354,0.0532683 -0.0248527,0.111243 -0.0165831,0.0580189 -0.0248527,0.0965075 -0.0248527,0.11551 0,0.00950119 0.00523445,0.0142518 0.0157473,0.0142518l0.23036 0c0.0129322,0 0.0246327,-0.00426674 0.0351456,-0.0128002l0.0497053 -0.0385326c0.0040468,-0.00378288 0.00607021,-0.00712589 0.00607021,-0.00998505 0,-0.00378288 -0.00848949,-0.00686197 -0.0254685,-0.00923727 -0.016935,-0.0023753 -0.0254245,-0.0087974 -0.0254245,-0.0192663zm0.167283 0.279493l0.520146 0c0.0120964,0 0.0399842,-0.0171109 0.0836633,-0.0513328 0.00483857,-0.00285916 0.00725786,-0.00571831 0.00725786,-0.00853348 0,-0.00382687 -0.00848949,-0.00716988 -0.0254685,-0.00998505 -0.016979,-0.00285916 -0.0254685,-0.00954518 -0.0254685,-0.0199701 0,-0.00193543 0,-0.00334301 0,-0.00431073l0.064265 -0.286619c0.00241929,-0.00853348 0.00365092,-0.0171109 0.00365092,-0.0256444 0,-0.0294713 -0.010293,-0.0537081 -0.0309229,-0.0727545 -0.0206299,-0.0190024 -0.0466702,-0.0285036 -0.0782089,-0.0285036l-0.520102 0c-0.00730184,0 -0.0109088,0.0023753 -0.0109088,0.00712589 0,0.00189144 0.000791766,0.00378288 0.00241929,0.00571831l0.0314947 0.0384886c0.00730184,0.00853348 0.0173749,0.0128442 0.030307,0.0128442l0.298276 0c0.0105129,0 0.0157473,0.00426674 0.0157473,0.0128002 0,0.0332982 -0.010073,0.0499252 -0.030307,0.0499252l-0.249758 0c-0.0379608,0 -0.0727545,0.0126243 -0.104249,0.0377848 -0.0315387,0.0252046 -0.0513328,0.0548958 -0.0594264,0.0891177l-0.0278878 0.126946c-0.00241929,0.00853348 -0.00360693,0.0175948 -0.00360693,0.027096 0,0.0294713 0.010293,0.0534442 0.0308789,0.0720067 0.0206299,0.0185185 0.0467142,0.0277998 0.0782089,0.0277998zm0.225521 -0.317982l0.0973872 0c0.00972113,0 0.0145597,0.0047506 0.0145597,0.0144717 0,0.00189144 -0.0165831,0.0760535 -0.0497053,0.222486 -0.00241929,0.0111727 -0.010117,0.016847 -0.0230492,0.016847l-0.0961996 0c-0.0104689,0 -0.0157473,-0.00426674 -0.0157473,-0.0128442 0,-0.00189144 0.0165831,-0.0760535 0.0497053,-0.222442 0.00241929,-0.0123603 0.010117,-0.0185185 0.0230492,-0.0185185zm1.40398 0.228161c0,-0.00193543 0,-0.00334301 0,-0.00431073l0.0654527 -0.286619c0.00162752,-0.00853348 0.00241929,-0.0171109 0.00241929,-0.0256444 0,-0.0294713 -0.010293,-0.0537081 -0.0309229,-0.0727545 -0.0205859,-0.0190024 -0.0466702,-0.0285036 -0.0781649,-0.0285036l-0.855987 0c-0.00809361,0 -0.0120964,0.0023753 -0.0120964,0.00712589 0,0.00285916 0.00703792,0.0118765 0.0212017,0.027096 0.0141638,0.0152195 0.0212017,0.0285036 0.0212017,0.0399402 0,0.00281517 -0.000395883,0.00523445 -0.00118765,0.00712589l-0.0921528 0.407848c0,0.00189144 0,0.00329903 0,0.00426674 0,0.00950119 0.00523445,0.0142518 0.0157473,0.0142518l0.231592 0c0.0120964,0 0.0197942,-0.00615818 0.0230052,-0.0185185l0.0921528 -0.407848c0.00241929,-0.0114366 0.0197942,-0.0171109 0.0521246,-0.0171109 0.0105129,0 0.0157913,0.00426674 0.0157913,0.0130641 -0.000219935,0.00189144 -0.000219935,0.00334301 -0.000219935,0.00426674l-0.0921528 0.407848c-0.000571831,0.00189144 -0.0010117,0.00334301 -0.0010117,0.00426674 0,0.00928126 0.00527844,0.0140319 0.0157913,0.0140319l0.230536 0c0.0129322,0 0.0206299,-0.00615818 0.0230492,-0.0185185l0.0921528 -0.407848c0.00321105,-0.0114366 0.0210258,-0.0171109 0.0531363,-0.0171109 0.00967714,0 0.0145597,0.00426674 0.0145597,0.0128002 0,0.00193543 0,0.00334301 0,0.00431073l-0.0921528 0.407848c0,0.00189144 0,0.00329903 0,0.00426674 0,0.00950119 0.00483857,0.0142518 0.0145597,0.0142518l0.231548 0c0.0129322,0 0.0246767,-0.00426674 0.0351896,-0.0128442l0.0497053 -0.0384886c0.0040468,-0.00285916 0.00602622,-0.00571831 0.00602622,-0.00853348 0,-0.00382687 -0.00848949,-0.00716988 -0.0254245,-0.00998505 -0.016979,-0.00285916 -0.0254685,-0.00954518 -0.0254685,-0.0199701z"/>
   <path id="_126629968" class="fil4" d="M0.896191 1.80259l0.0587227 0c0.000131961,0.00149556 0.000263922,0.00321105 0.000307909,0.00497053 4.3987e-005,0.00175948 4.3987e-005,0.0043987 4.3987e-005,0.00791766 0,0.0311868 -0.00681799,0.0543239 -0.020454,0.0693675 -0.013636,0.0151315 -0.0345738,0.0226533 -0.0627255,0.0226533 -0.0165831,0 -0.0307909,-0.00277118 -0.0425794,-0.00826956 -0.0118325,-0.00554236 -0.0214217,-0.0139439 -0.0287235,-0.0250726 -0.00505851,-0.00796165 -0.00870943,-0.0190024 -0.0109088,-0.0331662 -0.00219935,-0.0141198 -0.00334301,-0.0365532 -0.00334301,-0.0672561 0,-0.0307469 0.00114366,-0.0531803 0.00334301,-0.0673441 0.00219935,-0.0140758 0.00585027,-0.0251606 0.0109088,-0.0331222 0.00721387,-0.0110847 0.0166711,-0.0193983 0.0283716,-0.0249406 0.0117005,-0.00558635 0.0256884,-0.00835753 0.0419196,-0.00835753 0.0279757,0 0.0489135,0.00774171 0.0628574,0.0232251 0.0139879,0.0155274 0.0209818,0.0387965 0.0209818,0.0696754l0 0.00250726 -0.0580189 -0.000175948c-0.000219935,-0.0173309 -0.00219935,-0.0294713 -0.00602622,-0.0365092 -0.0037389,-0.00699393 -0.00998505,-0.0105129 -0.0188264,-0.0105129 -0.00963315,0 -0.0162312,0.00431073 -0.0197502,0.0128442 -0.00356295,0.00853348 -0.00532243,0.0311868 -0.00532243,0.067828l0 0.00488256c0,0.0394124 0.00175948,0.0636492 0.00532243,0.0725346 0.00351896,0.00888537 0.010073,0.0133281 0.0197062,0.0133281 0.00897335,0 0.0152195,-0.00321105 0.0188264,-0.00967714 0.00356295,-0.00651008 0.00536641,-0.0184745 0.00536641,-0.0360693l0 -0.0112607zm0.230052 -0.00585027l0 -0.0460544c0,-0.0282836 -0.00180347,-0.0458345 -0.00536641,-0.0525205 -0.00365092,-0.00664204 -0.010073,-0.00998505 -0.0194862,-0.00998505 -0.0091493,0 -0.0155714,0.00343099 -0.0190464,0.010293 -0.00360693,0.00686197 -0.00532243,0.0241929 -0.00532243,0.0522126l0 0.0460544c0,0.0276678 0.00171549,0.0449987 0.00532243,0.0519926 0.00347497,0.00703792 0.00998505,0.0105569 0.0193983,0.0105569 0.00928126,0 0.0156594,-0.00347497 0.0191783,-0.010293 0.00356295,-0.00686197 0.00532243,-0.0242368 0.00532243,-0.0522566zm-0.110011 -0.0230052c0,-0.0307469 0.00114366,-0.0531363 0.00334301,-0.0673001 0.00219935,-0.0141198 0.00585027,-0.0252046 0.0109088,-0.0331662 0.00730184,-0.0112607 0.016891,-0.0196182 0.0286795,-0.0251166 0.0118325,-0.00545439 0.0260403,-0.00818158 0.0426234,-0.00818158 0.0166711,0 0.0308789,0.00272719 0.0425354,0.00818158 0.0116566,0.00549838 0.0211138,0.0138559 0.0284156,0.0251166 0.00532243,0.00804962 0.00906132,0.0192223 0.0112607,0.0333421 0.00219935,0.0141638 0.00334301,0.0365092 0.00334301,0.0671242 0,0.030483 -0.00114366,0.0528284 -0.00334301,0.0670362 -0.00219935,0.0142078 -0.00593825,0.0253365 -0.0112607,0.0333861 -0.00716988,0.0111287 -0.0166271,0.0195302 -0.0284156,0.0250726 -0.0117445,0.00549838 -0.0259523,0.00826956 -0.0425354,0.00826956 -0.0165831,0 -0.0307909,-0.00277118 -0.0426234,-0.00826956 -0.0117885,-0.00554236 -0.0213777,-0.0139439 -0.0286795,-0.0250726 -0.00505851,-0.00791766 -0.00870943,-0.0190024 -0.0109088,-0.0331662 -0.00219935,-0.0141198 -0.00334301,-0.0365532 -0.00334301,-0.0672561zm0.234803 0.12765l0 -0.255301 0.0834873 0 0.0227413 0.10856c0.000131961,0.000571831 0.00105569,0.00734583 0.00277118,0.0204979 0.00171549,0.0130641 0.00351896,0.0261723 0.0054104,0.0393684 0.00140758,-0.00985309 0.00321105,-0.0219935 0.00536641,-0.0365532 0.00215536,-0.0145157 0.003387,-0.0225653 0.0037389,-0.0241489l0.0225653 -0.107724 0.0827396 0 0 0.255301 -0.0563913 0 0.00514648 -0.197326 -0.0404241 0.197326 -0.0455265 0 -0.0404241 -0.197326 0.00514648 0.197326 -0.0563474 0zm0.35823 -0.145465c0.000923727,8.7974e-005 0.00193543,0.000219935 0.0030351,0.000307909 0.00118765,0.000131961 0.00277118,0.000175948 0.00492654,0.000175948 0.0119205,0 0.0205419,-0.00277118 0.0258204,-0.00835753 0.00532243,-0.00554236 0.00796165,-0.0145157 0.00796165,-0.0268761 0,-0.010249 -0.00281517,-0.0175948 -0.00840152,-0.0221255 -0.00567432,-0.00453066 -0.0150875,-0.00681799 -0.0281957,-0.00681799l-0.00514648 0 0 0.0636932zm-0.0600862 0.145465l0 -0.255301 0.0587666 0c0.0216416,0 0.0375649,0.000967714 0.0479458,0.00281517 0.010293,0.00184745 0.0190024,0.00505851 0.0260843,0.00945721 0.00936923,0.00571831 0.0165391,0.0142518 0.0214217,0.0256444 0.00492654,0.0113047 0.00738982,0.0248087 0.00738982,0.040512 0,0.0258204 -0.00681799,0.0455265 -0.020454,0.0589426 -0.013636,0.013416 -0.0336501,0.020146 -0.0599983,0.020146l-0.0210698 0 0 0.0977831 -0.0600862 0zm0.220727 -0.255301l0.0604381 0 0 0.160025c0,0.0241489 0.00153955,0.0391484 0.00457465,0.0449107 0.0030351,0.00571831 0.00840152,0.00857747 0.0161432,0.00857747 0.00787367,0 0.0132401,-0.00299112 0.0162312,-0.00892936 0.00299112,-0.00598223 0.00448667,-0.0208059 0.00448667,-0.0445588l0 -0.160025 0.0590745 0 0 0.162928c0,0.0184745 -0.000791766,0.0322865 -0.0023753,0.0413918 -0.00167151,0.00910531 -0.00426674,0.017023 -0.00791766,0.023753 -0.00607021,0.0114806 -0.0148236,0.0199261 -0.0263042,0.0252925 -0.0115246,0.00536641 -0.0264802,0.00804962 -0.0449547,0.00804962 -0.017023,0 -0.0308789,-0.00250726 -0.0415677,-0.00752178 -0.0107768,-0.00505851 -0.0192663,-0.0131081 -0.0255125,-0.0241049 -0.00453066,-0.00787367 -0.00769773,-0.0179467 -0.00958917,-0.0302191 -0.00180347,-0.0122284 -0.00272719,-0.0329463 -0.00272719,-0.0621536l0 -0.137415zm0.260931 0.255301l0 -0.205727 -0.0478579 0 0 -0.0495734 0.157869 0 0 0.0495734 -0.0502332 0 0 0.205727 -0.0597783 0zm0.161696 0l0 -0.255301 0.138867 0 0 0.0495734 -0.0794845 0 0 0.0468462 0.0733703 0 0 0.0512449 -0.0733703 0 0 0.0556875 0.0794845 0 0 0.0519487 -0.138867 0zm0.262207 -0.149072c0.0010117,0 0.00233131,8.7974e-005 0.00391484,0.000175948 0.00158353,0.000131961 0.00277118,0.000175948 0.00356295,0.000175948 0.0123164,0 0.0211138,-0.00246327 0.0262602,-0.00747779 0.00514648,-0.00497053 0.00769773,-0.0133281 0.00769773,-0.0251606 0,-0.0109088 -0.00255125,-0.0186945 -0.00769773,-0.0232691 -0.00514648,-0.00457465 -0.0139439,-0.00690596 -0.0262602,-0.00690596 -0.000791766,0 -0.00197942,8.7974e-005 -0.00356295,0.000175948 -0.00158353,0.000131961 -0.00290314,0.000175948 -0.00391484,0.000175948l0 0.0621096zm-0.0590745 0.149072l0 -0.255301 0.0671682 0c0.0220375,0 0.0379608,0.0010117 0.0478579,0.0030351 0.00998505,0.0020234 0.0179907,0.00554236 0.0242368,0.0105129 0.00725786,0.00602622 0.0126683,0.0133281 0.0162752,0.0220815 0.00356295,0.00870943 0.0054104,0.0191343 0.0054104,0.0311428 0,0.0146917 -0.00255125,0.027008 -0.00769773,0.0369931 -0.00510249,0.00989708 -0.0130641,0.0181226 -0.0238849,0.0245008 0.0184306,0.00818158 0.0281517,0.0276238 0.0292074,0.0582388l0 0.000791766c8.7974e-005,0.00321105 0.000219935,0.00782969 0.000307909,0.0139439 0.000483857,0.0287675 0.00523445,0.0467582 0.0142958,0.05406l-0.0698514 0c-0.00158353,-0.00532243 -0.00272719,-0.0108648 -0.00343099,-0.0167151 -0.000703792,-0.0057623 -0.00109968,-0.0120085 -0.00109968,-0.0186065 0,-0.00413478 0.000131961,-0.00906132 0.000351896,-0.0148676 0.000219935,-0.00585027 0.000351896,-0.00958917 0.000351896,-0.0113926 0,-0.0155714 -0.00206739,-0.0262602 -0.00611419,-0.0320225 -0.00409079,-0.00571831 -0.0114366,-0.00857747 -0.0220375,-0.00857747l-0.0122724 0 0 0.102182 -0.0590745 0zm0.449107 -0.0987948l0.0587227 0c8.7974e-005,0.00149556 0.000219935,0.00321105 0.000263922,0.00497053 8.7974e-005,0.00175948 8.7974e-005,0.0043987 8.7974e-005,0.00791766 0,0.0311868 -0.00686197,0.0543239 -0.0204979,0.0693675 -0.013636,0.0151315 -0.0345738,0.0226533 -0.0626815,0.0226533 -0.0165831,0 -0.0307909,-0.00277118 -0.0426234,-0.00826956 -0.0118325,-0.00554236 -0.0213777,-0.0139439 -0.0286795,-0.0250726 -0.00510249,-0.00796165 -0.00870943,-0.0190024 -0.0109088,-0.0331662 -0.00224334,-0.0141198 -0.00334301,-0.0365532 -0.00334301,-0.0672561 0,-0.0307469 0.00109968,-0.0531803 0.00334301,-0.0673441 0.00219935,-0.0140758 0.00580628,-0.0251606 0.0109088,-0.0331222 0.00716988,-0.0110847 0.0166271,-0.0193983 0.0283276,-0.0249406 0.0117445,-0.00558635 0.0256884,-0.00835753 0.0419196,-0.00835753 0.0279757,0 0.0489135,0.00774171 0.0629014,0.0232251 0.0139439,0.0155274 0.0209818,0.0387965 0.0209818,0.0696754l0 0.00250726 -0.0580628 -0.000175948c-0.000219935,-0.0173309 -0.00219935,-0.0294713 -0.00598223,-0.0365092 -0.0037389,-0.00699393 -0.010029,-0.0105129 -0.0188704,-0.0105129 -0.00958917,0 -0.0162312,0.00431073 -0.0197502,0.0128442 -0.00356295,0.00853348 -0.00532243,0.0311868 -0.00532243,0.067828l0 0.00488256c0,0.0394124 0.00175948,0.0636492 0.00532243,0.0725346 0.00351896,0.00888537 0.010073,0.0133281 0.0197062,0.0133281 0.00901734,0 0.0152195,-0.00321105 0.0188264,-0.00967714 0.00356295,-0.00651008 0.0054104,-0.0184745 0.0054104,-0.0360693l0 -0.0112607zm0.256488 0.0987948l-0.131389 0 0 -0.255301 0.0597783 0 0 0.203704 0.0716108 0 0 0.0515968zm0.115422 -0.0950559l0.0343099 0 -0.017067 -0.111375 -0.0172429 0.111375zm-0.0737662 0.0950559l0.0556875 -0.255301 0.070951 0 0.0550277 0.255301 -0.0596464 0 -0.00747779 -0.0489135 -0.0468901 0 -0.00747779 0.0489135 -0.0601742 0zm0.22451 -0.0865664l0.0546319 0 0 0.0074338c0,0.0141198 0.00167151,0.0240169 0.00501452,0.0297352 0.00325504,0.0057623 0.00888537,0.00862145 0.0167151,0.00862145 0.00629014,0 0.0112607,-0.00219935 0.0149116,-0.00655406 0.00365092,-0.00435471 0.00545439,-0.010293 0.00545439,-0.0178147 0,-0.0124043 -0.00884139,-0.0243248 -0.0265682,-0.0357174 -0.00290314,-0.00197942 -0.00510249,-0.00347497 -0.00664204,-0.00444269l-0.00281517 -0.00180347c-0.0239729,-0.0161872 -0.0388845,-0.0283276 -0.0447348,-0.0365092 -0.00422275,-0.00615818 -0.00738982,-0.0131081 -0.00958917,-0.0208938 -0.00219935,-0.00769773 -0.00334301,-0.0161872 -0.00334301,-0.0253365 0,-0.0223014 0.00646609,-0.0398522 0.0194423,-0.0525205 0.0128882,-0.0127122 0.0307029,-0.0190464 0.0533562,-0.0190464 0.0246327,0 0.0434152,0.00620217 0.0564353,0.0187385 0.0129762,0.0124483 0.0194862,0.030483 0.0194862,0.054148 0,0.000923727 -4.3987e-005,0.0023753 -0.000175948,0.00413478 -0.000131961,0.00171549 -0.000175948,0.00307909 -0.000175948,0.00409079l-0.0536202 0 0 -0.00316706c0,-0.0110847 -0.00175948,-0.0194862 -0.00523445,-0.0252046 -0.00347497,-0.00571831 -0.00853348,-0.00862145 -0.0151315,-0.00862145 -0.00563034,0 -0.010161,0.0020234 -0.013548,0.00607021 -0.00343099,0.00400282 -0.00514648,0.00932524 -0.00514648,0.0159673 0,0.0107768 0.00967714,0.0222574 0.0290754,0.0343978 0.00356295,0.00228732 0.00624615,0.0040468 0.00809361,0.00532243 0.00158353,0.000835753 0.0037389,0.00224334 0.00651008,0.00409079 0.0208938,0.0132401 0.0342219,0.0244568 0.0401161,0.0335181 0.00360693,0.00580628 0.00646609,0.0124923 0.00840152,0.0199701 0.00189144,0.00747779 0.00285916,0.0155714 0.00285916,0.0242808 0,0.0255564 -0.00659805,0.0452186 -0.0199261,0.0590745 -0.0132401,0.0138119 -0.0321985,0.0207179 -0.0567872,0.0207179 -0.0258644,0 -0.0452626,-0.00664204 -0.0582828,-0.0198381 -0.0129762,-0.0132401 -0.0194862,-0.0328583 -0.0194862,-0.0589426 0,-0.00162752 8.7974e-005,-0.003387 0.000131961,-0.00519047 4.3987e-005,-0.00184745 0.000219935,-0.0047506 0.000571831,-0.00870943zm0.205463 0l0.0546758 0 0 0.0074338c0,0.0141198 0.00162752,0.0240169 0.00497053,0.0297352 0.00325504,0.0057623 0.00888537,0.00862145 0.016759,0.00862145 0.00624615,0 0.0112607,-0.00219935 0.0148676,-0.00655406 0.00369491,-0.00435471 0.00549838,-0.010293 0.00549838,-0.0178147 0,-0.0124043 -0.00888537,-0.0243248 -0.0266121,-0.0357174 -0.00290314,-0.00197942 -0.00510249,-0.00347497 -0.00659805,-0.00444269l-0.00285916 -0.00180347c-0.0239729,-0.0161872 -0.0388405,-0.0283276 -0.0447348,-0.0365092 -0.00417877,-0.00615818 -0.00734583,-0.0131081 -0.00958917,-0.0208938 -0.00219935,-0.00769773 -0.00334301,-0.0161872 -0.00334301,-0.0253365 0,-0.0223014 0.00646609,-0.0398522 0.0194423,-0.0525205 0.0128882,-0.0127122 0.0307029,-0.0190464 0.0533562,-0.0190464 0.0246767,0 0.0434592,0.00620217 0.0564793,0.0187385 0.0129322,0.0124483 0.0194423,0.030483 0.0194423,0.054148 0,0.000923727 -4.3987e-005,0.0023753 -0.000175948,0.00413478 -8.7974e-005,0.00171549 -0.000175948,0.00307909 -0.000175948,0.00409079l-0.0536202 0 0 -0.00316706c0,-0.0110847 -0.00175948,-0.0194862 -0.00523445,-0.0252046 -0.00347497,-0.00571831 -0.00853348,-0.00862145 -0.0151315,-0.00862145 -0.00563034,0 -0.010161,0.0020234 -0.013548,0.00607021 -0.00343099,0.00400282 -0.00514648,0.00932524 -0.00514648,0.0159673 0,0.0107768 0.00967714,0.0222574 0.0290754,0.0343978 0.00356295,0.00228732 0.00624615,0.0040468 0.00809361,0.00532243 0.00158353,0.000835753 0.0037389,0.00224334 0.00651008,0.00409079 0.0208938,0.0132401 0.0342659,0.0244568 0.0401161,0.0335181 0.00365092,0.00580628 0.00646609,0.0124923 0.00840152,0.0199701 0.00189144,0.00747779 0.00285916,0.0155714 0.00285916,0.0242808 0,0.0255564 -0.00659805,0.0452186 -0.0198821,0.0590745 -0.0132401,0.0138119 -0.0321985,0.0207179 -0.0568312,0.0207179 -0.0258644,0 -0.0452626,-0.00664204 -0.0582828,-0.0198381 -0.0129322,-0.0132401 -0.0194423,-0.0328583 -0.0194423,-0.0589426 0,-0.00162752 4.3987e-005,-0.003387 8.7974e-005,-0.00519047 4.3987e-005,-0.00184745 0.000219935,-0.0047506 0.000571831,-0.00870943zm0.213293 0.0865664l0 -0.255301 0.138823 0 0 0.0495734 -0.0794405 0 0 0.0468462 0.0733263 0 0 0.0512449 -0.0733263 0 0 0.0556875 0.0794405 0 0 0.0519487 -0.138823 0zm0.195346 -0.0865664l0.0546319 0 0 0.0074338c0,0.0141198 0.00167151,0.0240169 0.00497053,0.0297352 0.00329903,0.0057623 0.00888537,0.00862145 0.016759,0.00862145 0.00629014,0 0.0112607,-0.00219935 0.0149116,-0.00655406 0.00365092,-0.00435471 0.00545439,-0.010293 0.00545439,-0.0178147 0,-0.0124043 -0.00888537,-0.0243248 -0.0265682,-0.0357174 -0.00290314,-0.00197942 -0.00510249,-0.00347497 -0.00664204,-0.00444269l-0.00281517 -0.00180347c-0.0239729,-0.0161872 -0.0388845,-0.0283276 -0.0447788,-0.0365092 -0.00417877,-0.00615818 -0.00734583,-0.0131081 -0.00954518,-0.0208938 -0.00219935,-0.00769773 -0.00334301,-0.0161872 -0.00334301,-0.0253365 0,-0.0223014 0.00646609,-0.0398522 0.0193983,-0.0525205 0.0129322,-0.0127122 0.0307469,-0.0190464 0.0533562,-0.0190464 0.0246767,0 0.0434592,0.00620217 0.0564793,0.0187385 0.0129762,0.0124483 0.0194862,0.030483 0.0194862,0.054148 0,0.000923727 -8.7974e-005,0.0023753 -0.000175948,0.00413478 -0.000131961,0.00171549 -0.000175948,0.00307909 -0.000175948,0.00409079l-0.0536641 0 0 -0.00316706c0,-0.0110847 -0.00171549,-0.0194862 -0.00519047,-0.0252046 -0.00351896,-0.00571831 -0.00853348,-0.00862145 -0.0151755,-0.00862145 -0.00558635,0 -0.010117,0.0020234 -0.013504,0.00607021 -0.00347497,0.00400282 -0.00514648,0.00932524 -0.00514648,0.0159673 0,0.0107768 0.00967714,0.0222574 0.0290754,0.0343978 0.00356295,0.00228732 0.00624615,0.0040468 0.00809361,0.00532243 0.00158353,0.000835753 0.0037389,0.00224334 0.00651008,0.00409079 0.0208938,0.0132401 0.0342219,0.0244568 0.0401161,0.0335181 0.00360693,0.00580628 0.00646609,0.0124923 0.00835753,0.0199701 0.00193543,0.00747779 0.00290314,0.0155714 0.00290314,0.0242808 0,0.0255564 -0.00664204,0.0452186 -0.0199261,0.0590745 -0.0132401,0.0138119 -0.0321985,0.0207179 -0.0567872,0.0207179 -0.0258644,0 -0.0452626,-0.00664204 -0.0582828,-0.0198381 -0.0129762,-0.0132401 -0.0194862,-0.0328583 -0.0194862,-0.0589426 0,-0.00162752 8.7974e-005,-0.003387 0.000131961,-0.00519047 4.3987e-005,-0.00184745 0.000219935,-0.0047506 0.000571831,-0.00870943z"/>
   <path id="_126629896" class="fil5" d="M1.32322 0.586831l0.0556875 0 -0.0279757 -0.132973 -0.0277118 0.132973zm-0.0482537 0.0987948l0.0577549 -0.254245 0.0376969 0 0.0583708 0.254245 -0.0288555 0 -0.0154834 -0.0748659 -0.0671242 0 -0.0155274 0.0748659 -0.0268321 0zm0.286927 -0.14309l0.0232251 0c0.0182546,0 0.0319786,-0.00369491 0.0412158,-0.0110847 0.0091493,-0.00738982 0.0137679,-0.0184745 0.0137679,-0.0332542 0,-0.0148676 -0.00457465,-0.0259523 -0.013592,-0.0332982 -0.00910531,-0.00730184 -0.0228732,-0.0109968 -0.0413918,-0.0109968l-0.0232251 0 0 0.0886338zm-0.0273159 0.14309l0 -0.254245 0.0486056 0c0.0288995,0 0.0504531,0.00549838 0.0647049,0.0165831 0.0142078,0.0110407 0.0213337,0.0277558 0.0213337,0.0501892 0,0.0155274 -0.00360693,0.0285476 -0.0107768,0.0389725 -0.00721387,0.0103809 -0.0176828,0.0176828 -0.0313187,0.0219055l0.0435911 0.126595 -0.0295153 0 -0.0402041 -0.120964c-0.00730184,0.000263922 -0.0130202,0.00043987 -0.0171109,0.000527844 -0.00409079,0.000131961 -0.00787367,0.000175948 -0.0113486,0.000175948l-0.0106449 0 0 0.12026 -0.0273159 0zm0.170758 -0.225389l0 -0.0288555 0.0258204 0 0 0.0288555 -0.0258204 0zm0 0.225389l0 -0.182502 0.0258204 0 0 0.182502 -0.0258204 0zm0.0826956 -0.0674761c-0.00558635,-0.00545439 -0.00976511,-0.0126243 -0.0125363,-0.0213337 -0.00277118,-0.0087974 -0.00413478,-0.0193543 -0.00413478,-0.0317146 0,-0.0214657 0.00417877,-0.0376529 0.0125363,-0.0486496 0.00831354,-0.0109968 0.0205419,-0.0164951 0.0366412,-0.0164951 0.00831354,0 0.0155274,0.00140758 0.0217296,0.00417877 0.00615818,0.00272719 0.0113486,0.00690596 0.0155274,0.0124043 0.00457465,-0.00563034 0.00936923,-0.00985309 0.0144717,-0.0125363 0.00510249,-0.00268321 0.0106888,-0.0040468 0.016803,-0.0040468l0.0010117 0 0 0.0228293c-0.00127562,-0.000263922 -0.00250726,-0.000483857 -0.00360693,-0.000615818 -0.00118765,-0.000175948 -0.00241929,-0.000263922 -0.00369491,-0.000263922 -0.00321105,0 -0.00633413,0.000615818 -0.00928126,0.00197942 -0.0030351,0.00127562 -0.00602622,0.00334301 -0.0091493,0.00607021 0.00189144,0.00629014 0.00329903,0.0127562 0.00417877,0.0192223 0.000923727,0.00651008 0.00131961,0.0131961 0.00131961,0.0201021 0,0.0196182 -0.00417877,0.0346178 -0.0125803,0.0450867 -0.0084455,0.0105129 -0.02041,0.0157034 -0.0360254,0.0157034 -0.00228732,0 -0.0047506,-8.7974e-005 -0.00738982,-0.000395883 -0.00263922,-0.000307909 -0.00567432,-0.000747779 -0.00897335,-0.0013636 -0.00400282,0.000263922 -0.0074338,0.00149556 -0.0103369,0.00365092 -0.00290314,0.00215536 -0.00435471,0.00453066 -0.00435471,0.00703792 0,0.00250726 0.00087974,0.00483857 0.00250726,0.00694995 0.00171549,0.00211138 0.00400282,0.00365092 0.006774,0.00457465 0.00382687,0.00123164 0.0110847,0.00277118 0.0216416,0.00453066 0.0106449,0.00180347 0.0191343,0.00356295 0.0254685,0.00545439 0.0154834,0.00431073 0.0263042,0.00958917 0.0324624,0.0158353 0.00620217,0.00624615 0.00928126,0.0146477 0.00928126,0.0251166 0,0.0133281 -0.00615818,0.0239729 -0.0183866,0.0321105 -0.0122284,0.00818158 -0.0284156,0.0122284 -0.0484737,0.0122284 -0.0198821,0 -0.0354535,-0.00369491 -0.0466702,-0.0110847 -0.0111287,-0.00738982 -0.0167151,-0.0176388 -0.0167151,-0.0307909 0,-0.006774 0.00215536,-0.0130202 0.00651008,-0.0187385 0.00431073,-0.00567432 0.0112607,-0.0113926 0.0207179,-0.017023 -0.00659805,-0.00325504 -0.0113926,-0.006774 -0.0144717,-0.0105129 -0.00307909,-0.00378288 -0.00461864,-0.00800563 -0.00461864,-0.0128442 0,-0.00505851 0.00162752,-0.00963315 0.00501452,-0.0138559 0.003387,-0.00413478 0.00897335,-0.0084455 0.016803,-0.0128002zm0.0213337 0.0571391c-0.00928126,0.003387 -0.0159673,0.00725786 -0.0200581,0.0114806 -0.00409079,0.00422275 -0.00611419,0.00936923 -0.00611419,0.0154834 0,0.00721387 0.00347497,0.0128882 0.0105569,0.0171549 0.00699393,0.00422275 0.0166711,0.00633413 0.0288995,0.00633413 0.013416,0 0.023709,-0.00197942 0.0310548,-0.00602622 0.00730184,-0.00400282 0.0109968,-0.00963315 0.0109968,-0.016847 0,-0.00765374 -0.00417877,-0.013636 -0.0126243,-0.0179467 -0.00840152,-0.00426674 -0.0226533,-0.00747779 -0.0427114,-0.00963315zm0.0118765 -0.155274c-0.00958917,0 -0.0164951,0.00347497 -0.0207179,0.0103809 -0.00417877,0.00690596 -0.00629014,0.0184745 -0.00629014,0.0347057 0,0.0159673 0.00211138,0.0274039 0.00629014,0.0342659 0.00422275,0.00686197 0.0111287,0.0103369 0.0207179,0.0103369 0.0091493,0 0.0156594,-0.00347497 0.0197062,-0.0104689 0.00400282,-0.00694995 0.00602622,-0.0183426 0.00602622,-0.0341339 0,-0.0159233 -0.0020234,-0.0274039 -0.00611419,-0.0344858 -0.00409079,-0.00708191 -0.0106009,-0.0106009 -0.0196182,-0.0106009zm0.0918449 0.165611l0 -0.254245 0.0254685 0 0 0.0908772c0.00765374,-0.00826956 0.0151755,-0.0142518 0.0224774,-0.0180347 0.00734583,-0.00378288 0.0150875,-0.00567432 0.0232691,-0.00567432 0.0124483,0 0.0216416,0.00387086 0.0275799,0.0116126 0.00598223,0.00769773 0.00892936,0.0195742 0.00892936,0.0355855l0 0.139879 -0.0254685 0 0 -0.131785c0,-0.0126243 -0.00158353,-0.0214217 -0.00483857,-0.0263922 -0.00325504,-0.00497053 -0.00875341,-0.0074338 -0.0165391,-0.0074338 -0.00620217,0 -0.0123164,0.00197942 -0.0181666,0.00598223 -0.00589426,0.0040468 -0.0116126,0.010029 -0.0172429,0.0180347l0 0.141594 -0.0254685 0zm0.15721 -0.161388l-0.0254685 0 0 -0.0211138 0.0254685 0 0 -0.060834 0.0250726 0 0 0.060834 0.0343099 0 0 0.0211138 -0.0343099 0 0 0.117049c0,0.0107768 0.00131961,0.0179907 0.00382687,0.0215976 0.00250726,0.0037389 0.00699393,0.00554236 0.013548,0.00554236 0.00224334,0 0.0074338,-0.000791766 0.0154834,-0.00224334l0.00145157 -0.000175948 0 0.020322c-0.00501452,0.00123164 -0.00976511,0.00219935 -0.0140758,0.00290314 -0.00426674,0.000615818 -0.00796165,0.000967714 -0.0109968,0.000967714 -0.0114366,0 -0.0200581,-0.00299112 -0.0257764,-0.00888537 -0.00567432,-0.00598223 -0.00853348,-0.0148236 -0.00853348,-0.0266121l0 -0.130465zm0.212545 0.161388l-0.0244568 0 -0.0420076 -0.254245 0.0250286 0 0.0243688 0.151271c0.0020234,0.0126683 0.00347497,0.023709 0.00448667,0.0330342 0.000967714,0.00936923 0.00153955,0.0180787 0.00175948,0.0263482 0.000747779,-0.00972113 0.00184745,-0.0195742 0.00325504,-0.0296033 0.00145157,-0.010029 0.00321105,-0.020146 0.00523445,-0.030483l0.0320225 -0.150568 0.0218615 0 0.0320225 0.150568c0.00215536,0.0103369 0.00400282,0.020454 0.0054104,0.030483 0.00145157,0.010029 0.00250726,0.0198821 0.00325504,0.0296033 0.000263922,-0.00866544 0.000791766,-0.0175068 0.00171549,-0.0265242 0.00087974,-0.00897335 0.00233131,-0.0199701 0.00435471,-0.0328583l0.0245447 -0.151271 0.0250286 0 -0.0421395 0.254245 -0.0243248 0 -0.0365972 -0.182502c-0.0010117,-0.00514648 -0.00197942,-0.0105569 -0.00268321,-0.0162752 -0.000703792,-0.0057623 -0.00123164,-0.0117445 -0.00162752,-0.0179907 -0.000967714,0.00901734 -0.00189144,0.016935 -0.00277118,0.023841 -0.00087974,0.00686197 -0.00180347,0.0125363 -0.00281517,0.0171549l-0.0349257 0.175772zm0.248351 -0.098091c-0.0205419,0.00435471 -0.0365092,0.0113047 -0.0479018,0.0208059 -0.0113926,0.00950119 -0.017023,0.0206299 -0.017023,0.0333421 0,0.00716988 0.0023753,0.0130202 0.00716988,0.0176388 0.00488256,0.00461864 0.0109088,0.00699393 0.0182986,0.00699393 0.00580628,0 0.0122284,-0.00171549 0.0189584,-0.00510249 0.00686197,-0.00334301 0.01368,-0.00822557 0.0204979,-0.0145597l0 -0.0591185zm0 0.0816839c-0.00629014,0.00593825 -0.0131081,0.0104689 -0.0205419,0.013548 -0.00752178,0.00312308 -0.0152635,0.00466262 -0.0233131,0.00466262 -0.0144277,0 -0.0258204,-0.00413478 -0.0341339,-0.0124043 -0.00826956,-0.00818158 -0.0124043,-0.0194423 -0.0124043,-0.0336061 0,-0.0179027 0.00774171,-0.0334301 0.0231812,-0.0466262 0.0154394,-0.0132401 0.0378728,-0.0233571 0.0672121,-0.030483l0 -0.00413478 0 -0.00738982c0,-0.0115686 -0.00219935,-0.0198381 -0.00668602,-0.0248527 -0.00444269,-0.00505851 -0.0117445,-0.00756576 -0.0219495,-0.00756576 -0.0087974,0 -0.0156154,0.00263922 -0.020454,0.00796165 -0.00479458,0.00532243 -0.00835753,0.0141198 -0.0106009,0.0264802l-0.0248966 -0.0037389c0.00299112,-0.016891 0.00919328,-0.0296912 0.0186065,-0.0385766 0.00945721,-0.00884139 0.0217296,-0.0132401 0.0368171,-0.0132401 0.0192663,0 0.0332102,0.0047506 0.0419636,0.0142958 0.00866544,0.00950119 0.0130202,0.0250286 0.0130202,0.0466262l0 0.0832674c0,0.00734583 0.000263922,0.0144717 0.000791766,0.0214657 0.000571831,0.00694995 0.0013636,0.0138999 0.00246327,0.0207179l-0.0259963 0 -0.00307909 -0.0164072zm0.0513328 -0.166095l0.0264802 0 0.0331662 0.137503 0.0324624 -0.137503 0.0255564 0 -0.0446908 0.181886c-0.00563034,0.0226533 -0.0133281,0.0386646 -0.0230932,0.0481218 -0.00985309,0.00936923 -0.0234011,0.0140758 -0.040644,0.0140758 -0.00228732,0 -0.00400282,-8.7974e-005 -0.00519047,-0.000131961 -0.00109968,-4.3987e-005 -0.00206739,-0.000131961 -0.00294713,-0.000219935l0 -0.0225213c0.000747779,0.000131961 0.00153955,0.000175948 0.00246327,0.000219935 0.00087974,8.7974e-005 0.00219935,0.000131961 0.00400282,0.000131961 0.0117005,0 0.0207179,-0.00321105 0.027184,-0.00972113 0.00637812,-0.00646609 0.0110407,-0.016891 0.0139439,-0.0313187l-0.0486936 -0.180523zm0.291546 0.187429c-0.0242808,0 -0.0425794,-0.0111727 -0.0549398,-0.0335621 -0.0123603,-0.0223894 -0.0185625,-0.0552917 -0.0185625,-0.0986628 0,-0.0434592 0.00620217,-0.0763614 0.0185625,-0.0985749 0.0123603,-0.0222134 0.0306589,-0.0332982 0.0549398,-0.0332982 0.0241049,0 0.0424475,0.0111287 0.0549398,0.0334301 0.0124483,0.0222574 0.0187385,0.0550717 0.0187385,0.0984429 0,0.0433712 -0.00629014,0.0762735 -0.0187385,0.0986628 -0.0124923,0.0223894 -0.0308349,0.0335621 -0.0549398,0.0335621zm0 -0.240521c-0.0154394,0 -0.0267441,0.00826956 -0.033914,0.0247207 -0.00721387,0.0164951 -0.0108208,0.0424035 -0.0108208,0.077681 0,0.0404241 0.00347497,0.0695435 0.0105569,0.0874462 0.00699393,0.0178587 0.0183866,0.0267881 0.0341779,0.0267881 0.0153955,0 0.0266121,-0.00862145 0.033782,-0.0258204 0.00716988,-0.0171549 0.0107328,-0.0446468 0.0107328,-0.0824316 0,-0.0375209 -0.00356295,-0.0650128 -0.0107328,-0.0823437 -0.00716988,-0.0173749 -0.0183866,-0.0260403 -0.033782,-0.0260403zm0.174364 -0.020454l0 0.0197062c-0.00299112,-0.000659805 -0.00532243,-0.00114366 -0.00699393,-0.0013636 -0.00171549,-0.000219935 -0.00312308,-0.000351896 -0.00435471,-0.000351896 -0.00804962,0 -0.013548,0.00180347 -0.0164072,0.00549838 -0.00290314,0.00369491 -0.00431073,0.0121404 -0.00431073,0.0254685l0 0.0245887 0.030615 0 0 0.0214657 -0.030615 0 0 0.161036 -0.0254685 0 0 -0.161036 -0.0287675 0 0 -0.0214657 0.0287675 0 0 -0.0215096c0,-0.0206739 0.00277118,-0.0348817 0.00831354,-0.0424475 0.00554236,-0.00752178 0.0153075,-0.0113047 0.0293833,-0.0113047 0.00422275,0 0.00787367,0.000131961 0.0109968,0.00043987 0.00312308,0.000263922 0.00607021,0.000703792 0.00884139,0.00127562zm0.0928566 0.188572l0.0258204 0c0.000967714,0.0166271 0.00492654,0.0289434 0.0117885,0.0369051 0.00690596,0.00796165 0.0171109,0.0119645 0.0307029,0.0119645 0.0116126,0 0.0210258,-0.00382687 0.0282397,-0.0114806 0.00716988,-0.00769773 0.0107768,-0.0179027 0.0107768,-0.030615 0,-0.0111287 -0.00329903,-0.0213337 -0.00998505,-0.030527 -0.00673001,-0.00919328 -0.0205419,-0.0212017 -0.0415237,-0.0359814 -0.0210258,-0.0149116 -0.0349257,-0.0275799 -0.0416997,-0.0380048 -0.00668602,-0.0104249 -0.010073,-0.0226533 -0.010073,-0.0367291 0,-0.0163192 0.00558635,-0.0299112 0.016847,-0.0408199 0.0112607,-0.0109528 0.0253365,-0.0164072 0.0422715,-0.0164072 0.0198821,0 0.0355855,0.00602622 0.0470221,0.0181226 0.0114366,0.0121404 0.0174628,0.0290314 0.0182106,0.050805l-0.0251166 0c-0.00123164,-0.0155714 -0.00501452,-0.0273599 -0.0115686,-0.0352776 -0.0064221,-0.00791766 -0.0156154,-0.0118325 -0.0274039,-0.0118325 -0.0109528,0 -0.0196622,0.00321105 -0.0261723,0.00958917 -0.00646609,0.00646609 -0.00972113,0.0150436 -0.00972113,0.0258204 0,0.00549838 0.00114366,0.0108208 0.00343099,0.0160553 0.00228732,0.00519047 0.00545439,0.00989708 0.00954518,0.0139879 0.00602622,0.00598223 0.0150436,0.0132401 0.027096,0.0218176 0.0120524,0.00862145 0.0196182,0.0140758 0.0227413,0.0164511 0.0149996,0.0116126 0.0257764,0.0229172 0.0322425,0.034002 0.0064221,0.0111287 0.00972113,0.023753 0.00972113,0.0378288 0,0.0201021 -0.00602622,0.0362893 -0.0180347,0.0484737 -0.0120524,0.0121844 -0.0278438,0.0182546 -0.0475939,0.0182546 -0.0211577,0 -0.0375649,-0.00624615 -0.0493534,-0.0188704 -0.0117445,-0.0125803 -0.0178587,-0.030483 -0.0182106,-0.0535322zm0.27703 -0.115026l0 0.182502 -0.0254245 0 0 -0.0190904c-0.00769773,0.00822557 -0.0151315,0.0142518 -0.0223454,0.0179907 -0.00716988,0.00382687 -0.0148676,0.00567432 -0.0230492,0.00567432 -0.0124923,0 -0.0217736,-0.00378288 -0.0277998,-0.0114806 -0.00607021,-0.00765374 -0.00910531,-0.0194423 -0.00910531,-0.0353216l0 -0.140275 0.0254685 0 0 0.131829c0,0.0128442 0.00162752,0.0216856 0.0047506,0.0265682 0.00321105,0.00483857 0.00870943,0.00725786 0.0166711,0.00725786 0.0064221,0 0.0127562,-0.00211138 0.0188704,-0.00629014 0.00607021,-0.00413478 0.0116126,-0.010073 0.0165391,-0.0177707l0 -0.141594 0.0254245 0zm0.12312 0.0523885c-0.000571831,-0.0118765 -0.00325504,-0.0208059 -0.0081376,-0.0266561 -0.00479458,-0.00589426 -0.0117445,-0.00884139 -0.0207619,-0.00884139 -0.0113047,0 -0.0194862,0.00580628 -0.0245887,0.0173309 -0.00505851,0.0115686 -0.00756576,0.0306589 -0.00756576,0.0572711 0,0.02692 0.00250726,0.0459224 0.00747779,0.0570951 0.00501452,0.0111287 0.013372,0.0167151 0.0250286,0.0167151 0.0091493,0 0.0163192,-0.00365092 0.0213337,-0.0109088 0.00505851,-0.00725786 0.00787367,-0.0178147 0.00848949,-0.0316706l0.0232251 0c-8.7974e-005,0.0197062 -0.00497053,0.0353656 -0.0145597,0.0469781 -0.00963315,0.0115686 -0.0224774,0.0173749 -0.0386206,0.0173749 -0.0197942,0 -0.0344858,-0.0077857 -0.043943,-0.0233131 -0.00954518,-0.0155714 -0.0142518,-0.0396763 -0.0142518,-0.0723146 0,-0.0327703 0.00470661,-0.0568752 0.0142518,-0.0724026 0.00945721,-0.0155274 0.0241049,-0.0232691 0.043943,-0.0232691 0.0152635,0 0.0275799,0.00510249 0.0369491,0.0152635 0.00936923,0.010117 0.0144277,0.0238849 0.0151315,0.0413478l-0.0234011 0zm0.137591 0c-0.000571831,-0.0118765 -0.00325504,-0.0208059 -0.00809361,-0.0266561 -0.00483857,-0.00589426 -0.0117445,-0.00884139 -0.0208059,-0.00884139 -0.0113047,0 -0.0194862,0.00580628 -0.0245887,0.0173309 -0.00505851,0.0115686 -0.00756576,0.0306589 -0.00756576,0.0572711 0,0.02692 0.00250726,0.0459224 0.00752178,0.0570951 0.00497053,0.0111287 0.0133281,0.0167151 0.0249846,0.0167151 0.00919328,0 0.0163192,-0.00365092 0.0213777,-0.0109088 0.00501452,-0.00725786 0.00782969,-0.0178147 0.0084455,-0.0316706l0.0232691 0c-0.000131961,0.0197062 -0.00501452,0.0353656 -0.0145597,0.0469781 -0.00967714,0.0115686 -0.0225213,0.0173749 -0.0386206,0.0173749 -0.0197942,0 -0.0345298,-0.0077857 -0.043987,-0.0233131 -0.00950119,-0.0155714 -0.0142518,-0.0396763 -0.0142518,-0.0723146 0,-0.0327703 0.0047506,-0.0568752 0.0142518,-0.0724026 0.00945721,-0.0155274 0.0241049,-0.0232691 0.043987,-0.0232691 0.0152195,0 0.0275359,0.00510249 0.0369491,0.0152635 0.00932524,0.010117 0.0143838,0.0238849 0.0151315,0.0413478l-0.0234451 0zm0.138691 0.0703352l0.0241929 0c-0.00109968,0.020366 -0.0064221,0.0362013 -0.0158793,0.047506 -0.00954518,0.0112607 -0.0221694,0.016847 -0.0380488,0.016847 -0.0197942,0 -0.0344858,-0.0077857 -0.043943,-0.0233131 -0.00954518,-0.0155714 -0.0142958,-0.0396763 -0.0142958,-0.0723146 0,-0.0327703 0.0047506,-0.0568752 0.0142078,-0.0724026 0.00954518,-0.0155274 0.0241489,-0.0232691 0.043943,-0.0232691 0.0183866,0 0.0322425,0.00703792 0.0415237,0.0211577 0.00928126,0.0140758 0.0139439,0.0351896 0.0139439,0.0632533 0,0.00387086 0,0.00681799 -4.3987e-005,0.00875341 -4.3987e-005,0.00193543 -0.000131961,0.00382687 -0.000307909,0.00567432l-0.0874462 0c0.000131961,0.0254685 0.00272719,0.0436791 0.00774171,0.0544559 0.00510249,0.0108208 0.0132841,0.0162312 0.0245887,0.0162312 0.00919328,0 0.0162752,-0.00365092 0.0213777,-0.0109088 0.00501452,-0.00725786 0.00782969,-0.0178147 0.0084455,-0.0316706zm-0.0619337 -0.0485177l0.0614059 0 0 -0.00703792c0,-0.0178587 -0.00233131,-0.0307029 -0.00694995,-0.0384886 -0.00466262,-0.00787367 -0.0121844,-0.0117885 -0.0226973,-0.0117885 -0.010073,0 -0.0177707,0.00461864 -0.0229172,0.0138999 -0.00519047,0.00923727 -0.0081376,0.023709 -0.00884139,0.0434152zm0.114102 0.0640891l0.0243248 -0.00536641c0.00153955,0.0105129 0.00536641,0.0187825 0.0114366,0.0247647 0.00611419,0.00602622 0.013416,0.00901734 0.0220815,0.00901734 0.00831354,0 0.0150436,-0.00259523 0.020278,-0.0077857 0.00523445,-0.00523445 0.00782969,-0.0120524 0.00782969,-0.020366 0,-0.0125803 -0.0115686,-0.0263042 -0.0346178,-0.0411278l-0.000571831 -0.000351896c-0.0186945,-0.0122724 -0.0308349,-0.0222134 -0.0366412,-0.0298232 -0.00571831,-0.00765374 -0.00857747,-0.0161872 -0.00857747,-0.0257324 0,-0.0131961 0.00453066,-0.0241049 0.013548,-0.0327703 0.00906132,-0.00862145 0.020454,-0.0129762 0.0340899,-0.0129762 0.0142518,0 0.0258204,0.00356295 0.0346178,0.0106888 0.00884139,0.00712589 0.0152195,0.0180787 0.0191783,0.0329463l-0.0217736 0.00633413c-0.00263922,-0.00985309 -0.00659805,-0.0173309 -0.0117445,-0.0223454 -0.00514648,-0.00505851 -0.0115686,-0.00756576 -0.0192223,-0.00756576 -0.00725786,0 -0.0131081,0.00211138 -0.0175948,0.00624615 -0.00448667,0.00417877 -0.006774,0.00958917 -0.006774,0.0162752 0,0.0106009 0.0112607,0.0230932 0.033694,0.0374329 0.00963315,0.00615818 0.0171109,0.0111287 0.0223894,0.0148676 0.00853348,0.00624615 0.0148676,0.0131081 0.0189144,0.0206739 0.00413478,0.00747779 0.00615818,0.0160553 0.00615818,0.0255564 0,0.0151755 -0.00497053,0.0272719 -0.0149556,0.0363333 -0.00998505,0.00901734 -0.0234451,0.013504 -0.0403801,0.013504 -0.0146917,0 -0.027008,-0.00431073 -0.0369491,-0.0129762 -0.00994106,-0.00870943 -0.0162312,-0.0205419 -0.0187385,-0.0354535zm0.138691 0l0.0243688 -0.00536641c0.00153955,0.0105129 0.00532243,0.0187825 0.0114366,0.0247647 0.00607021,0.00602622 0.013372,0.00901734 0.0220375,0.00901734 0.00831354,0 0.0150875,-0.00259523 0.020322,-0.0077857 0.00523445,-0.00523445 0.0077857,-0.0120524 0.0077857,-0.020366 0,-0.0125803 -0.0115686,-0.0263042 -0.0346178,-0.0411278l-0.000527844 -0.000351896c-0.0186945,-0.0122724 -0.0308789,-0.0222134 -0.0366412,-0.0298232 -0.00571831,-0.00765374 -0.00862145,-0.0161872 -0.00862145,-0.0257324 0,-0.0131961 0.00453066,-0.0241049 0.013592,-0.0327703 0.00901734,-0.00862145 0.02041,-0.0129762 0.0340459,-0.0129762 0.0142958,0 0.0258204,0.00356295 0.0346178,0.0106888 0.00884139,0.00712589 0.0152635,0.0180787 0.0191783,0.0329463l-0.0217736 0.00633413c-0.00263922,-0.00985309 -0.00655406,-0.0173309 -0.0117445,-0.0223454 -0.00514648,-0.00505851 -0.0115246,-0.00756576 -0.0192223,-0.00756576 -0.00725786,0 -0.0131081,0.00211138 -0.0175948,0.00624615 -0.00448667,0.00417877 -0.006774,0.00958917 -0.006774,0.0162752 0,0.0106009 0.0112607,0.0230932 0.033694,0.0374329 0.00967714,0.00615818 0.0171109,0.0111287 0.0223894,0.0148676 0.00853348,0.00624615 0.0148676,0.0131081 0.0189584,0.0206739 0.00409079,0.00747779 0.00615818,0.0160553 0.00615818,0.0255564 0,0.0151755 -0.00501452,0.0272719 -0.0149556,0.0363333 -0.010029,0.00901734 -0.0234891,0.013504 -0.0403801,0.013504 -0.0147356,0 -0.027008,-0.00431073 -0.0369931,-0.0129762 -0.00994106,-0.00870943 -0.0162312,-0.0205419 -0.0187385,-0.0354535z"/>
   <path id="_126629848" class="fil5" d="M0.0944401 0.169746l0.0234891 -0.00211138c0.00109968,0.00950119 0.00369491,0.0172869 0.00782969,0.0234451 0.00409079,0.00607021 0.0104249,0.0109968 0.0190024,0.0147796 0.00862145,0.0037389 0.0182986,0.00563034 0.0290314,0.00563034 0.00954518,0 0.0179907,-0.00140758 0.0252925,-0.00426674 0.00730184,-0.00285916 0.0127122,-0.006774 0.0162752,-0.0117445 0.00360693,-0.00497053 0.0054104,-0.0103809 0.0054104,-0.0162312 0,-0.00589426 -0.00171549,-0.0110407 -0.00514648,-0.0154834 -0.00347497,-0.0043987 -0.0091493,-0.00809361 -0.017067,-0.0111287 -0.00505851,-0.00197942 -0.0163192,-0.00505851 -0.033694,-0.00923727 -0.0174189,-0.00417877 -0.0295593,-0.00809361 -0.0365092,-0.0117885 -0.00906132,-0.0047506 -0.0157473,-0.0106888 -0.020146,-0.0176828 -0.00444269,-0.00699393 -0.00664204,-0.0148676 -0.00664204,-0.023577 0,-0.00958917 0.00272719,-0.0185185 0.0081376,-0.0267881 0.0054104,-0.00835753 0.0132841,-0.0146477 0.023753,-0.0189584 0.0103809,-0.00431073 0.0219935,-0.00646609 0.0347057,-0.00646609 0.0140319,0 0.0263922,0.00224334 0.037081,0.006774 0.0107328,0.00448667 0.0189584,0.0111287 0.0247207,0.0199701 0.0057623,0.00875341 0.00884139,0.0186945 0.00928126,0.0297792l-0.0240609 0.00189144c-0.00127562,-0.0119645 -0.00563034,-0.0209818 -0.0130641,-0.027052 -0.0074338,-0.00615818 -0.0184745,-0.00919328 -0.0329903,-0.00919328 -0.0151315,0 -0.0262163,0.00277118 -0.0331222,0.00835753 -0.00690596,0.00554236 -0.0103809,0.0122284 -0.0103809,0.0200581 0,0.00681799 0.00241929,0.0124043 0.00734583,0.016803 0.00483857,0.00435471 0.0173749,0.00888537 0.0377408,0.01346 0.020366,0.00466262 0.0343099,0.00866544 0.0418756,0.0120964 0.0109968,0.00505851 0.0191343,0.0114366 0.0243688,0.0192223 0.00527844,0.0077857 0.00782969,0.0167151 0.00782969,0.0268321 0,0.010117 -0.00285916,0.0195302 -0.00862145,0.0284156 -0.0057623,0.00892936 -0.0139879,0.0158353 -0.0248087,0.0207619 -0.0107768,0.00492654 -0.0228732,0.00738982 -0.0364212,0.00738982 -0.017067,0 -0.0314067,-0.00250726 -0.0429313,-0.00747779 -0.0116126,-0.00497053 -0.0206299,-0.0124923 -0.027184,-0.0225213 -0.00659805,-0.00998505 -0.010029,-0.0213337 -0.0103809,-0.033958zm0.188704 0.06079l0 -0.189232 0.0251166 0 0 0.189232 -0.0251166 0zm0.0689276 0l0 -0.189232 0.0257324 0 0.0992787 0.148544 0 -0.148544 0.0240609 0 0 0.189232 -0.0257324 0 -0.0992787 -0.148544 0 0.148544 -0.0240609 0zm0.325944 -0.0663764l0.0251166 0.00633413c-0.00523445,0.0205859 -0.0146917,0.0362013 -0.0282836,0.0470221 -0.013636,0.0107768 -0.0302631,0.0161872 -0.0499692,0.0161872 -0.020366,0 -0.0369051,-0.00413478 -0.0496613,-0.0124483 -0.0128002,-0.00826956 -0.0224774,-0.020322 -0.0291194,-0.0360254 -0.00668602,-0.0157913 -0.010029,-0.0326384 -0.010029,-0.050717 0,-0.0197062 0.0037389,-0.0368611 0.0113047,-0.0515528 0.00752178,-0.0146477 0.0182106,-0.0258204 0.0321105,-0.0334301 0.0138559,-0.00760975 0.0291194,-0.0113926 0.0457905,-0.0113926 0.0189584,0 0.0348377,0.00479458 0.0477259,0.0144277 0.0128882,0.00967714 0.0218615,0.0231812 0.026964,0.040644l-0.0245887 0.00580628c-0.0043987,-0.0137679 -0.0107768,-0.023797 -0.0190904,-0.0300431 -0.00831354,-0.00633413 -0.0188264,-0.00945721 -0.0314507,-0.00945721 -0.0145157,0 -0.0266561,0.00351896 -0.0363773,0.0104689 -0.00976511,0.00694995 -0.0166271,0.0163192 -0.0205419,0.0280637 -0.00395883,0.0117445 -0.00593825,0.0238849 -0.00593825,0.0363333 0,0.0160553 0.00233131,0.0301311 0.00699393,0.0420956 0.00466262,0.0120524 0.0119205,0.0209818 0.0218176,0.02692 0.00985309,0.00593825 0.0205419,0.00888537 0.0320225,0.00888537 0.0139879,0 0.0258204,-0.0040468 0.0354975,-0.0120964 0.00967714,-0.00809361 0.0162752,-0.0201021 0.0197062,-0.0360254zm0.0566113 0.0663764l0 -0.189232 0.136624 0 0 0.0222134 -0.111507 0 0 0.0581068 0.104381 0 0 0.0222134 -0.104381 0 0 0.0644849 0.115994 0 0 0.0222134 -0.14111 0zm0.361793 -0.0222134l0 0.0222134 -0.125275 0c-0.000175948,-0.00558635 0.000703792,-0.0109528 0.00272719,-0.0161872 0.00321105,-0.00848949 0.00835753,-0.016891 0.0154394,-0.0251166 0.00708191,-0.00826956 0.0172429,-0.0177707 0.030395,-0.0285476 0.0204979,-0.016891 0.0343978,-0.0302191 0.0416557,-0.0401161 0.00734583,-0.00985309 0.0109968,-0.0191783 0.0109968,-0.0280197 0,-0.00919328 -0.00329903,-0.016935 -0.00994106,-0.0232691 -0.00659805,-0.00633413 -0.0152195,-0.00950119 -0.0258204,-0.00950119 -0.0112607,0 -0.020234,0.003387 -0.026964,0.010073 -0.00673001,0.00664204 -0.010161,0.0158793 -0.010249,0.0277558l-0.023753 -0.0023753c0.00158353,-0.0178147 0.0077857,-0.0314067 0.0184306,-0.040732 0.0107328,-0.00932524 0.0250286,-0.0139879 0.0430633,-0.0139879 0.0181226,0 0.0325504,0.00501452 0.0431073,0.0150875 0.0106009,0.010117 0.0159233,0.0226093 0.0159233,0.0375209 0,0.00756576 -0.00153955,0.0149996 -0.00466262,0.0223014 -0.00312308,0.00738982 -0.00826956,0.0150875 -0.0154394,0.0231812 -0.00721387,0.00804962 -0.0191783,0.0192223 -0.0358054,0.0332982 -0.0139879,0.0117005 -0.0229612,0.0196622 -0.02692,0.023841 -0.00395883,0.00417877 -0.00721387,0.00835753 -0.00985309,0.0125803l0.0929445 0zm0.0251606 -0.071171c0,-0.0223454 0.00228732,-0.0403801 0.00686197,-0.05406 0.00461864,-0.01368 0.0114366,-0.0242368 0.0204979,-0.0315827 0.00906132,-0.00734583 0.020454,-0.0109968 0.0341779,-0.0109968 0.010161,0 0.0190464,0.0020234 0.0267441,0.00611419 0.00765374,0.00409079 0.0140319,0.00998505 0.0189584,0.0177268 0.00492654,0.00765374 0.0087974,0.017023 0.0116126,0.0281077 0.00285916,0.0110407 0.00426674,0.0259523 0.00426674,0.0446908 0,0.0222134 -0.00228732,0.0401601 -0.00681799,0.0538401 -0.00453066,0.01368 -0.0113486,0.0241929 -0.020454,0.0316267 -0.00901734,0.00738982 -0.020454,0.0110847 -0.0343099,0.0110847 -0.0181666,0 -0.0325064,-0.00646609 -0.0428873,-0.0194862 -0.0124483,-0.0158353 -0.0186505,-0.0415237 -0.0186505,-0.0770652zm0.023753 8.7974e-005c0,0.0311428 0.00360693,0.0518607 0.0108648,0.0620657 0.00730184,0.010249 0.0162752,0.0153955 0.02692,0.0153955 0.0106888,0 0.0196622,-0.00519047 0.02692,-0.0154394 0.00725786,-0.010293 0.0109088,-0.0309669 0.0109088,-0.0620217 0,-0.0311428 -0.00365092,-0.0518607 -0.0109088,-0.0620657 -0.00721387,-0.010249 -0.0162752,-0.0153955 -0.027184,-0.0153955 -0.0106449,0 -0.0191783,0.00457465 -0.0256004,0.013592 -0.00796165,0.0114806 -0.0119205,0.0328143 -0.0119205,0.0638691zm0.210434 0.0932964l-0.0232691 0 0 -0.148104c-0.00558635,0.00536641 -0.0129322,0.0106888 -0.0220375,0.0160553 -0.00906132,0.00532243 -0.0172429,0.00932524 -0.0244568,0.0119645l0 -0.0224774c0.0129762,-0.00607021 0.0243248,-0.01346 0.0340899,-0.0221694 0.00972113,-0.00870943 0.0166271,-0.0171109 0.0206739,-0.0252925l0.0149996 0 0 0.190024zm0.0597783 -0.0933844c0,-0.0223454 0.00228732,-0.0403801 0.00686197,-0.05406 0.00461864,-0.01368 0.0114806,-0.0242368 0.0205419,-0.0315827 0.00901734,-0.00734583 0.020454,-0.0109968 0.0341779,-0.0109968 0.010117,0 0.0190024,0.0020234 0.0267441,0.00611419 0.00765374,0.00409079 0.0139879,0.00998505 0.0189584,0.0177268 0.00492654,0.00765374 0.0087974,0.017023 0.0116126,0.0281077 0.00285916,0.0110407 0.00426674,0.0259523 0.00426674,0.0446908 0,0.0222134 -0.00228732,0.0401601 -0.00681799,0.0538401 -0.00453066,0.01368 -0.0113486,0.0241929 -0.020454,0.0316267 -0.00901734,0.00738982 -0.0204979,0.0110847 -0.0343099,0.0110847 -0.0182106,0 -0.0325064,-0.00646609 -0.0429313,-0.0194862 -0.0124483,-0.0158353 -0.0186505,-0.0415237 -0.0186505,-0.0770652zm0.023797 8.7974e-005c0,0.0311428 0.00360693,0.0518607 0.0108648,0.0620657 0.00725786,0.010249 0.0162752,0.0153955 0.02692,0.0153955 0.0106449,0 0.0196182,-0.00519047 0.02692,-0.0154394 0.00725786,-0.010293 0.0108648,-0.0309669 0.0108648,-0.0620217 0,-0.0311428 -0.00360693,-0.0518607 -0.0108648,-0.0620657 -0.00721387,-0.010249 -0.0163192,-0.0153955 -0.027184,-0.0153955 -0.0106449,0 -0.0192223,0.00457465 -0.0256004,0.013592 -0.00796165,0.0114806 -0.0119205,0.0328143 -0.0119205,0.0638691z"/>
  </g>
 </g>
</svg>
